<svg width="14" height="13" viewBox="0 0 14 13" fill="none" xmlns="http://www.w3.org/2000/svg">
<path fill-rule="evenodd" clip-rule="evenodd" d="M11.8715 12.1475L11.872 12.1463L11.8842 12.1138L14 0.839598V0.802978C14 0.522073 13.9018 0.276844 13.6881 0.129748C13.5011 0.00099499 13.286 -0.00817444 13.1353 0.00392118C12.9758 0.0167135 12.8254 0.0587822 12.7213 0.0938004C12.6678 0.111816 12.623 0.129175 12.5909 0.142304C12.5748 0.148893 12.5618 0.154485 12.5523 0.158651L12.543 0.162795L0.746486 5.05377L0.74324 5.055C0.736868 5.05745 0.728443 5.06077 0.718267 5.06496C0.697979 5.07331 0.670365 5.08525 0.637924 5.10079C0.574227 5.1313 0.486221 5.17838 0.396969 5.24298C0.245381 5.3527 -0.0432653 5.61244 0.0054749 6.02423C0.0458464 6.36532 0.268305 6.58195 0.418281 6.6941C0.498677 6.75423 0.575589 6.79758 0.631911 6.82592C0.660449 6.84028 0.68469 6.85128 0.702743 6.85905C0.711794 6.86294 0.719361 6.86606 0.725217 6.8684L0.732713 6.87136L0.737506 6.87324L2.80138 7.60761C2.79441 7.74447 2.80726 7.88401 2.8416 8.02169L3.87541 12.1666C3.99799 12.658 4.41865 13.0004 4.89953 13C5.33056 12.9997 5.71285 12.7241 5.87525 12.3129L7.4893 10.4888L10.2614 12.7351L10.3008 12.7532C10.5526 12.8694 10.7879 12.9062 11.0031 12.8751C11.2179 12.8441 11.3886 12.7489 11.5169 12.6405C11.643 12.5338 11.7295 12.4133 11.7839 12.3227C11.8116 12.2766 11.8322 12.2361 11.8464 12.2056C11.8536 12.1903 11.8593 12.1774 11.8635 12.1673L11.8688 12.1543L11.8707 12.1495L11.8715 12.1475ZM3.86491 7.73656C3.84142 7.64236 3.8783 7.54292 3.95611 7.49069L10.9565 2.79212C10.9565 2.79212 11.3682 2.52793 11.3535 2.79212C11.3535 2.79212 11.427 2.83878 11.2064 3.05632C10.9971 3.26293 6.21702 8.14058 5.73334 8.63414C5.70542 8.66263 5.68876 8.69531 5.67892 8.73499L4.89873 11.8814L3.86491 7.73656Z" fill="white"/>
</svg>
