<svg width="17" height="14" viewBox="0 0 17 14" fill="none" xmlns="http://www.w3.org/2000/svg">
<path d="M4.08242 0.377765C6.95584 0.127985 9.84551 0.127984 12.7189 0.377765L14.1033 0.498107C15.0249 0.578219 15.8142 1.12792 16.2232 1.91421C16.2755 2.0148 16.2363 2.13659 16.1399 2.19627L10.3961 5.75196C9.16421 6.51455 7.6109 6.53055 6.36358 5.79349L0.581404 2.37675C0.487986 2.32155 0.445106 2.20792 0.487207 2.10791C0.861351 1.21914 1.70251 0.584646 2.69804 0.498107L4.08242 0.377765Z" fill="white"/>
<path d="M0.482501 3.91543C0.339535 3.83095 0.157115 3.92186 0.14045 4.08708C-0.0921405 6.39308 -0.0358472 8.72091 0.30933 11.0163C0.491302 12.2264 1.47893 13.1541 2.69804 13.2601L4.08242 13.3805C6.95584 13.6302 9.84552 13.6302 12.7189 13.3805L14.1033 13.2601C15.3224 13.1541 16.3101 12.2264 16.492 11.0163C16.8473 8.65402 16.8965 6.25738 16.6398 3.88554C16.6218 3.71915 16.4363 3.62991 16.294 3.718L11.1198 6.92107C9.45317 7.95281 7.35163 7.97446 5.66408 6.97727L0.482501 3.91543Z" fill="white"/>
</svg>
