<svg width="28" height="27" viewBox="0 0 28 27" fill="none" xmlns="http://www.w3.org/2000/svg">
<path d="M10.3054 19.3097L8.29545 17.2997L17.4929 8.14489L19.5028 10.1548L10.3054 19.3097ZM17.4787 19.3097L8.28125 10.1548L10.2912 8.14489L19.4886 17.2997L17.4787 19.3097ZM3.15341 26.9091C2.35795 26.9091 1.75189 26.7008 1.33523 26.2841C0.918561 25.8674 0.710227 25.2614 0.710227 24.4659V2.98864C0.710227 2.19318 0.918561 1.58712 1.33523 1.17045C1.75189 0.753788 2.35795 0.545455 3.15341 0.545455H24.6307C25.4261 0.545455 26.0322 0.753788 26.4489 1.17045C26.8655 1.58712 27.0739 2.19318 27.0739 2.98864V24.4659C27.0739 25.2614 26.8655 25.8674 26.4489 26.2841C26.0322 26.7008 25.4261 26.9091 24.6307 26.9091H3.15341ZM3.01847 24.8849H24.7585C24.8485 24.8849 24.9195 24.8565 24.9716 24.7997C25.0237 24.7476 25.0497 24.679 25.0497 24.5938V2.8608C25.0497 2.77083 25.0237 2.69981 24.9716 2.64773C24.9195 2.59564 24.8485 2.5696 24.7585 2.5696H3.01847C2.93797 2.5696 2.86932 2.59564 2.8125 2.64773C2.76042 2.69981 2.73438 2.77083 2.73438 2.8608V24.5938C2.73438 24.679 2.76042 24.7476 2.8125 24.7997C2.86932 24.8565 2.93797 24.8849 3.01847 24.8849Z" fill="black"/>
</svg>
